<svg xmlns="http://www.w3.org/2000/svg" viewBox="0 0 800 450">
  <defs>
    <linearGradient id="bg" x1="0" y1="0" x2="800" y2="450" gradientUnits="userSpaceOnUse">
      <stop offset="0%" stop-color="#0a0f1e"/>
      <stop offset="100%" stop-color="#0d1525"/>
    </linearGradient>
    <linearGradient id="glow1" x1="0" y1="0" x2="400" y2="450" gradientUnits="userSpaceOnUse">
      <stop offset="0%" stop-color="#3b82f6" stop-opacity="0.15"/>
      <stop offset="100%" stop-color="#3b82f6" stop-opacity="0"/>
    </linearGradient>
    <linearGradient id="glow2" x1="400" y1="0" x2="800" y2="450" gradientUnits="userSpaceOnUse">
      <stop offset="0%" stop-color="#22c55e" stop-opacity="0"/>
      <stop offset="100%" stop-color="#22c55e" stop-opacity="0.15"/>
    </linearGradient>
    <filter id="blur1"><feGaussianBlur stdDeviation="30"/></filter>
  </defs>
  <rect width="800" height="450" fill="url(#bg)"/>
  <rect width="800" height="450" fill="url(#glow1)"/>
  <rect width="800" height="450" fill="url(#glow2)"/>
  <circle cx="250" cy="225" r="160" fill="#3b82f6" opacity="0.06" filter="url(#blur1)"/>
  <circle cx="550" cy="225" r="160" fill="#22c55e" opacity="0.06" filter="url(#blur1)"/>
  <line x1="400" y1="60" x2="400" y2="390" stroke="#ffffff" stroke-width="1" opacity="0.08"/>
  <g transform="translate(100,80)">
    <rect x="0" y="0" width="270" height="170" rx="6" fill="#0f172a" stroke="#3b82f6" stroke-width="1" opacity="0.7"/>
    <rect x="8" y="25" width="254" height="8" rx="2" fill="#1e293b"/>
    <rect x="8" y="42" width="254" height="8" rx="2" fill="#1e293b"/>
    <rect x="8" y="59" width="254" height="8" rx="2" fill="#1e293b"/>
    <rect x="8" y="76" width="254" height="8" rx="2" fill="#1e293b"/>
    <rect x="8" y="93" width="254" height="8" rx="2" fill="#1e293b"/>
    <rect x="8" y="110" width="254" height="8" rx="2" fill="#1e293b"/>
    <rect x="16" y="28" width="120" height="4" rx="2" fill="#3b82f6" opacity="0.8"/>
    <rect x="16" y="45" width="180" height="4" rx="2" fill="#60a5fa" opacity="0.4"/>
    <rect x="16" y="62" width="90" height="4" rx="2" fill="#60a5fa" opacity="0.3"/>
    <text x="130" y="18" text-anchor="middle" font-size="10" fill="#3b82f6" opacity="0.6" font-family="monospace">Cursor</text>
    <path d="M-10 175 L280 175 L290 185 L-20 185 Z" fill="#0f172a" stroke="#3b82f6" stroke-width="0.5" opacity="0.5"/>
  </g>
  <g transform="translate(430,80)">
    <rect x="0" y="0" width="270" height="170" rx="6" fill="#0f172a" stroke="#22c55e" stroke-width="1" opacity="0.7"/>
    <rect x="8" y="25" width="254" height="8" rx="2" fill="#1e293b"/>
    <rect x="8" y="42" width="254" height="8" rx="2" fill="#1e293b"/>
    <rect x="8" y="59" width="254" height="8" rx="2" fill="#1e293b"/>
    <rect x="8" y="76" width="254" height="8" rx="2" fill="#1e293b"/>
    <rect x="8" y="93" width="254" height="8" rx="2" fill="#1e293b"/>
    <rect x="8" y="110" width="254" height="8" rx="2" fill="#1e293b"/>
    <rect x="16" y="28" width="100" height="4" rx="2" fill="#22c55e" opacity="0.8"/>
    <rect x="16" y="45" width="160" height="4" rx="2" fill="#4ade80" opacity="0.4"/>
    <rect x="16" y="62" width="140" height="4" rx="2" fill="#4ade80" opacity="0.3"/>
    <text x="130" y="18" text-anchor="middle" font-size="10" fill="#22c55e" opacity="0.6" font-family="monospace">Copilot</text>
    <path d="M-10 175 L280 175 L290 185 L-20 185 Z" fill="#0f172a" stroke="#22c55e" stroke-width="0.5" opacity="0.5"/>
  </g>
  <g transform="translate(370,290)" opacity="0.5">
    <text x="0" y="0" text-anchor="middle" font-size="20" fill="#ffffff" opacity="0.3" font-family="sans-serif">VS</text>
  </g>
  <circle cx="100" cy="80" r="1.5" fill="#3b82f6" opacity="0.5"/>
  <circle cx="700" cy="100" r="1.5" fill="#22c55e" opacity="0.5"/>
  <circle cx="400" cy="50" r="1.2" fill="#ffffff" opacity="0.3"/>
  <circle cx="650" cy="380" r="1.8" fill="#22c55e" opacity="0.3"/>
  <circle cx="150" cy="380" r="1.5" fill="#3b82f6" opacity="0.3"/>
</svg>