<svg xmlns="http://www.w3.org/2000/svg" viewBox="0 0 800 450">
  <defs>
    <linearGradient id="bg" x1="0" y1="0" x2="800" y2="450" gradientUnits="userSpaceOnUse">
      <stop offset="0%" stop-color="#0a0f1e"/>
      <stop offset="100%" stop-color="#101520"/>
    </linearGradient>
    <linearGradient id="glow" x1="0" y1="0" x2="800" y2="0" gradientUnits="userSpaceOnUse">
      <stop offset="0%" stop-color="#10b981" stop-opacity="0.2"/>
      <stop offset="50%" stop-color="#ffffff" stop-opacity="0.05"/>
      <stop offset="100%" stop-color="#f97316" stop-opacity="0.2"/>
    </linearGradient>
    <filter id="blur1"><feGaussianBlur stdDeviation="35"/></filter>
  </defs>
  <rect width="800" height="450" fill="url(#bg)"/>
  <rect width="800" height="450" fill="url(#glow)"/>
  <circle cx="250" cy="225" r="150" fill="#10b981" opacity="0.06" filter="url(#blur1)"/>
  <circle cx="550" cy="225" r="150" fill="#f97316" opacity="0.06" filter="url(#blur1)"/>
  <line x1="400" y1="80" x2="400" y2="370" stroke="#ffffff" stroke-width="1" opacity="0.06"/>
  <g transform="translate(170,120)">
    <circle cx="80" cy="80" r="60" fill="none" stroke="#10b981" stroke-width="1.5" opacity="0.5"/>
    <circle cx="80" cy="80" r="45" fill="none" stroke="#10b981" stroke-width="1" opacity="0.3"/>
    <circle cx="80" cy="80" r="8" fill="#10b981" opacity="0.6"/>
    <line x1="80" y1="20" x2="80" y2="35" stroke="#10b981" stroke-width="1" opacity="0.4"/>
    <line x1="80" y1="125" x2="80" y2="140" stroke="#10b981" stroke-width="1" opacity="0.4"/>
    <line x1="20" y1="80" x2="35" y2="80" stroke="#10b981" stroke-width="1" opacity="0.4"/>
    <line x1="125" y1="80" x2="140" y2="80" stroke="#10b981" stroke-width="1" opacity="0.4"/>
    <text x="80" y="170" text-anchor="middle" font-size="12" fill="#10b981" opacity="0.6" font-family="sans-serif">GPT-4o</text>
  </g>
  <g transform="translate(470,120)">
    <circle cx="80" cy="80" r="60" fill="none" stroke="#f97316" stroke-width="1.5" opacity="0.5"/>
    <circle cx="80" cy="80" r="45" fill="none" stroke="#f97316" stroke-width="1" opacity="0.3"/>
    <circle cx="80" cy="80" r="8" fill="#f97316" opacity="0.6"/>
    <line x1="80" y1="20" x2="80" y2="35" stroke="#f97316" stroke-width="1" opacity="0.4"/>
    <line x1="80" y1="125" x2="80" y2="140" stroke="#f97316" stroke-width="1" opacity="0.4"/>
    <line x1="20" y1="80" x2="35" y2="80" stroke="#f97316" stroke-width="1" opacity="0.4"/>
    <line x1="125" y1="80" x2="140" y2="80" stroke="#f97316" stroke-width="1" opacity="0.4"/>
    <text x="80" y="170" text-anchor="middle" font-size="12" fill="#f97316" opacity="0.6" font-family="sans-serif">Claude</text>
  </g>
  <g transform="translate(365,215)" opacity="0.5">
    <text x="0" y="0" text-anchor="middle" font-size="16" fill="#ffffff" opacity="0.3" font-family="sans-serif">VS</text>
  </g>
  <g transform="translate(280,350)" opacity="0.3">
    <rect x="0" y="0" width="50" height="20" rx="4" fill="#10b981" opacity="0.3"/>
    <rect x="55" y="0" width="50" height="20" rx="4" fill="#f97316" opacity="0.3"/>
    <rect x="110" y="0" width="80" height="20" rx="4" fill="#ffffff" opacity="0.05"/>
    <text x="25" y="14" text-anchor="middle" font-size="7" fill="#ffffff" opacity="0.6" font-family="sans-serif">87.1</text>
    <text x="80" y="14" text-anchor="middle" font-size="7" fill="#ffffff" opacity="0.6" font-family="sans-serif">87.1</text>
    <text x="150" y="14" text-anchor="middle" font-size="7" fill="#ffffff" opacity="0.4" font-family="sans-serif">TIE</text>
  </g>
  <circle cx="80" cy="80" r="1.5" fill="#10b981" opacity="0.4"/>
  <circle cx="720" cy="100" r="1.5" fill="#f97316" opacity="0.4"/>
  <circle cx="400" cy="50" r="1.2" fill="#ffffff" opacity="0.3"/>
</svg>