<svg xmlns="http://www.w3.org/2000/svg" viewBox="0 0 800 450">
  <defs>
    <linearGradient id="bg" x1="0" y1="0" x2="800" y2="450" gradientUnits="userSpaceOnUse">
      <stop offset="0%" stop-color="#0f0b2e"/>
      <stop offset="100%" stop-color="#1a1040"/>
    </linearGradient>
    <linearGradient id="glow" x1="0" y1="0" x2="800" y2="0" gradientUnits="userSpaceOnUse">
      <stop offset="0%" stop-color="#6366f1" stop-opacity="0.3"/>
      <stop offset="50%" stop-color="#a78bfa" stop-opacity="0.15"/>
      <stop offset="100%" stop-color="#06b6d4" stop-opacity="0.3"/>
    </linearGradient>
    <filter id="blur1"><feGaussianBlur stdDeviation="40"/></filter>
  </defs>
  <rect width="800" height="450" fill="url(#bg)"/>
  <rect width="800" height="450" fill="url(#glow)"/>
  <circle cx="200" cy="200" r="180" fill="#6366f1" opacity="0.08" filter="url(#blur1)"/>
  <circle cx="600" cy="280" r="150" fill="#06b6d4" opacity="0.06" filter="url(#blur1)"/>
  <g transform="translate(250,120)">
    <rect x="0" y="0" width="300" height="190" rx="8" fill="#1e1b4b" stroke="#6366f1" stroke-width="1" opacity="0.8"/>
    <rect x="10" y="10" width="280" height="170" rx="4" fill="#0f0d2a"/>
    <rect x="25" y="30" width="180" height="6" rx="3" fill="#a78bfa" opacity="0.7"/>
    <rect x="25" y="48" width="140" height="6" rx="3" fill="#818cf8" opacity="0.5"/>
    <rect x="25" y="66" width="200" height="6" rx="3" fill="#6366f1" opacity="0.4"/>
    <rect x="25" y="84" width="120" height="6" rx="3" fill="#818cf8" opacity="0.3"/>
    <rect x="25" y="102" width="160" height="6" rx="3" fill="#6366f1" opacity="0.35"/>
    <rect x="25" y="120" width="100" height="6" rx="3" fill="#818cf8" opacity="0.25"/>
    <rect x="215" y="84" width="3" height="10" rx="1" fill="#22d3ee" opacity="0.9">
      <animate attributeName="opacity" values="0.9;0.2;0.9" dur="1.2s" repeatCount="indefinite"/>
    </rect>
    <g transform="translate(220,25)" opacity="0.6">
      <rect width="60" height="20" rx="10" fill="#6366f1" opacity="0.3"/>
      <text x="30" y="14" text-anchor="middle" font-size="8" fill="#c4b5fd" font-family="sans-serif">AI</text>
    </g>
    <path d="M-20 195 L320 195 L340 210 L-40 210 Z" fill="#1e1b4b" stroke="#6366f1" stroke-width="0.5" opacity="0.6"/>
  </g>
  <g transform="translate(620,100)" opacity="0.4">
    <rect x="-2" y="-40" width="4" height="50" rx="2" fill="#a78bfa"/>
    <polygon points="-2,10 2,10 0,22" fill="#c4b5fd"/>
  </g>
  <text x="130" y="160" font-size="28" fill="#6366f1" opacity="0.12" font-family="serif">Aa</text>
  <circle cx="100" cy="100" r="2" fill="#a78bfa" opacity="0.5"/>
  <circle cx="700" cy="120" r="1.5" fill="#22d3ee" opacity="0.4"/>
  <circle cx="650" cy="380" r="2.5" fill="#6366f1" opacity="0.3"/>
  <circle cx="150" cy="380" r="1.8" fill="#a78bfa" opacity="0.35"/>
  <circle cx="400" cy="50" r="1.2" fill="#22d3ee" opacity="0.45"/>
</svg>