<svg xmlns="http://www.w3.org/2000/svg" viewBox="0 0 512 512" fill="none">
  <rect width="512" height="512" rx="100" fill="#1296DB"/>
  <path d="M128 140h256c16 0 28 12 28 28v24c0 16-12 28-28 28H128c-16 0-28-12-28-28v-24c0-16 12-28 28-28z" fill="#fff"/>
  <path d="M128 216h200c16 0 28 12 28 28v24c0 16-12 28-28 28H128c-16 0-28-12-28-28v-24c0-16 12-28 28-28z" fill="#fff" opacity="0.85"/>
  <path d="M128 292h228c16 0 28 12 28 28v24c0 16-12 28-28 28H128c-16 0-28-12-28-28v-24c0-16 12-28 28-28z" fill="#fff" opacity="0.7"/>
  <rect x="156" y="148" width="80" height="8" rx="4" fill="#1296DB" opacity="0.4"/>
  <rect x="156" y="166" width="50" height="6" rx="3" fill="#1296DB" opacity="0.3"/>
  <rect x="156" y="224" width="100" height="8" rx="4" fill="#1296DB" opacity="0.35"/>
  <rect x="156" y="242" width="60" height="6" rx="3" fill="#1296DB" opacity="0.25"/>
  <rect x="156" y="300" width="90" height="8" rx="4" fill="#1296DB" opacity="0.3"/>
  <rect x="156" y="318" width="55" height="6" rx="3" fill="#1296DB" opacity="0.2"/>
</svg>
