<svg xmlns="http://www.w3.org/2000/svg" viewBox="0 0 64 64">
  <title>CNBlogs</title>
  <!-- B letter stylized -->
  <path d="M12 10H32C38.6 10 44 15.4 44 22C44 26.4 41.6 30.2 38 31.6V32.4C41.6 33.8 44 37.6 44 42C44 48.6 38.6 54 32 54H12V10Z" fill="#1296DB"/>
  <!-- Inner B shape -->
  <path d="M16 14H30C34.4 14 38 17.6 38 22C38 25.2 36 27.8 33 28.8L38 34.2C38 37.6 36 40.2 33 41.2L38 46.6C38 50.4 34.4 54 30 54H16V14Z" fill="#1e88e5"/>
  <!-- Top bar -->
  <rect x="12" y="10" width="8" height="44" fill="#1296DB"/>
  <!-- Middle bar -->
  <rect x="12" y="30" width="6" height="4" fill="#0d7ab5"/>
  <!-- Highlight -->
  <rect x="14" y="12" width="4" height="40" fill="#42a5f5" opacity="0.3"/>
</svg>