<svg xmlns="http://www.w3.org/2000/svg" viewBox="0 0 64 64">
  <title>Descript</title>
  <!-- D letter -->
  <path d="M14 10H30C40 10 46 16 46 26C46 36 40 42 30 42H14V10Z" fill="#ffffff"/>
  <!-- D cutout -->
  <path d="M18 14H28C35 14 38 18 38 26C38 34 35 38 28 38H18V14Z" fill="#1e1e1e"/>
  <!-- Play button accent -->
  <path d="M40 22L40 42L54 32L40 22Z" fill="#ffffff"/>
  <!-- Inner D -->
  <path d="M22 18H26C30 18 32 20 32 26C32 32 30 34 26 34H22V18Z" fill="#4f46e5"/>
  <!-- Highlight -->
  <circle cx="48" cy="18" r="3" fill="#ffffff" opacity="0.3"/>
</svg>