<svg xmlns="http://www.w3.org/2000/svg" viewBox="0 0 64 64">
  <title>Grammarly</title>
  <!-- G letter -->
  <path d="M32 10C18 10 10 20 10 32C10 44 18 54 32 54C40 54 46 50 48 44H42C40 48 36 50 32 50C22 50 18 42 18 32C18 22 22 14 32 14C40 14 44 20 44 20V16H32V10Z" fill="#15c39a"/>
  <!-- Crossbar -->
  <rect x="32" y="28" width="16" height="6" rx="3" fill="#15c39a"/>
  <!-- Ring accent -->
  <circle cx="48" cy="48" r="10" fill="none" stroke="#15c39a" stroke-width="3" opacity="0.4"/>
  <!-- Checkmark -->
  <path d="M42 48L46 52L54 44" stroke="#15c39a" stroke-width="3" fill="none" stroke-linecap="round" stroke-linejoin="round"/>
</svg>