<svg xmlns="http://www.w3.org/2000/svg" viewBox="0 0 24 24" fill="#fff"><path d="M12 0C5.372 0 0 5.372 0 12s5.372 12 12 12 12-5.372 12-12S18.628 0 12 0zM9.9 12c0-1.71 1.39-3.1 3.1-3.1s3.1 1.39 3.1 3.1-1.39 3.1-3.1 3.1S9.9 13.71 9.9 12zm7.6 4.2c-.47.47-1.04.84-1.67 1.1-.63.26-1.3.39-1.97.39s-1.34-.13-1.97-.39c-.63-.26-1.2-.63-1.67-1.1-.47-.47-.84-1.04-1.1-1.67C9.13 13.9 9 13.23 9 12.56V5h2v2.34c.3-.19.62-.35.96-.47C12.3 6.75 12.65 6.69 13 6.69s.7.06 1.04.18c.34.12.66.28.96.47V5h2v7.56c0 .67-.13 1.34-.39 1.97-.26.63-.63 1.2-1.1 1.67z"/></svg>
