<svg xmlns="http://www.w3.org/2000/svg" viewBox="0 0 64 64">
  <title>Jasper</title>
  <!-- J letter stylized -->
  <path d="M24 10H40C44 10 46 12 46 16V32C46 40 40 46 32 46C24 46 18 40 18 32V18H24V32C24 36 26 40 32 40C38 40 40 36 40 32V16C40 14 38 12 34 12H24V10Z" fill="#ffffff"/>
  <!-- Inner J -->
  <path d="M26 14H38C40 14 42 15 42 18V30C42 36 38 40 32 40C26 40 22 36 22 30V18C22 17 23 16 24 16H26V14Z" fill="#1e1e1e"/>
  <!-- Top accent -->
  <rect x="24" y="10" width="16" height="4" rx="2" fill="#ffffff"/>
  <!-- Sparkle -->
  <circle cx="50" cy="12" r="4" fill="#ffffff" opacity="0.3"/>
  <circle cx="54" cy="20" r="2" fill="#ffffff" opacity="0.2"/>
</svg>