<svg xmlns="http://www.w3.org/2000/svg" viewBox="0 0 64 64">
  <title>JiMeng</title>
  <!-- Paint brush handle -->
  <rect x="8" y="44" width="8" height="16" rx="2" fill="#6b46c1"/>
  <rect x="10" y="46" width="4" height="12" rx="1" fill="#7c3aed"/>
  <!-- Brush tip -->
  <path d="M8 42L12 28L20 36L16 44L8 42Z" fill="#a78bfa"/>
  <!-- Paint stroke/creativity symbol -->
  <path d="M24 12C28 8 36 8 44 12C52 16 56 24 56 32C56 40 52 48 44 52C36 56 28 56 20 52C12 48 8 40 8 32C8 24 12 16 20 12C28 8 36 8 44 12" stroke="#7B5EA7" stroke-width="4" fill="none" stroke-linecap="round"/>
  <!-- Sparkles -->
  <circle cx="48" cy="20" r="3" fill="#c4b5fd"/>
  <circle cx="56" cy="28" r="2" fill="#c4b5fd" opacity="0.6"/>
  <circle cx="52" cy="40" r="2.5" fill="#c4b5fd"/>
</svg>