<svg xmlns="http://www.w3.org/2000/svg" viewBox="0 0 64 64">
  <title>Midjourney</title>
  <!-- Sailboat hull -->
  <path d="M12 48L20 54H44L52 48L48 40H16L12 48Z" fill="#ffffff"/>
  <!-- Sail left -->
  <path d="M18 44L18 16L36 44H18Z" fill="#ffffff" opacity="0.9"/>
  <!-- Sail right -->
  <path d="M46 44L46 20L30 44H46Z" fill="#ffffff" opacity="0.8"/>
  <!-- Mast -->
  <rect x="30" y="14" width="4" height="36" fill="#ffffff"/>
  <!-- Flag -->
  <path d="M34 14L34 22L44 18L34 14Z" fill="#ffffff"/>
  <!-- Water reflection -->
  <path d="M10 56Q18 52 26 56Q34 60 42 56Q50 52 58 56" stroke="#ffffff" stroke-width="2" fill="none" opacity="0.5"/>
  <!-- Small waves -->
  <path d="M8 52Q12 50 16 52" stroke="#ffffff" stroke-width="1.5" fill="none" opacity="0.4"/>
  <path d="M48 52Q52 50 56 52" stroke="#ffffff" stroke-width="1.5" fill="none" opacity="0.4"/>
</svg>