<svg xmlns="http://www.w3.org/2000/svg" viewBox="0 0 64 64">
  <title>QinYan</title>
  <!-- Chat bubble -->
  <path d="M12 16C12 12.686 14.686 10 18 10H46C49.314 10 52 12.686 52 16V40C52 43.314 49.314 46 46 46H32L20 56V46H18C14.686 46 12 43.314 12 40V16Z" fill="#6C5CE7"/>
  <!-- Bubble highlight -->
  <path d="M16 14C16 11.791 17.791 10 20 10H44C46.209 10 48 11.791 48 14V38C48 40.209 46.209 42 44 42H30L22 50V42H20C17.791 42 16 40.209 16 38V14Z" fill="#7c68ee"/>
  <!-- Q letter -->
  <path d="M26 18H32C36.4 18 40 21.6 40 26C40 30.4 36.4 34 32 34H28V42H24V34H26V18Z" fill="#ffffff"/>
  <!-- Q tail -->
  <path d="M36 36L44 44" stroke="#ffffff" stroke-width="3" stroke-linecap="round"/>
  <!-- Decorative dots -->
  <circle cx="20" cy="24" r="2" fill="#a78bfa"/>
  <circle cx="48" cy="20" r="2" fill="#a78bfa" opacity="0.5"/>
</svg>