<svg xmlns="http://www.w3.org/2000/svg" viewBox="0 0 512 512" fill="none">
  <rect width="512" height="512" rx="100" fill="#6C5CE7"/>
  <path d="M160 180c0-20 16-36 36-36s36 16 36 36-16 36-36 36-36-16-36-36z" fill="#fff"/>
  <path d="M280 180c0-20 16-36 36-36s36 16 36 36-16 36-36 36-36-16-36-36z" fill="#fff"/>
  <circle cx="172" cy="178" r="8" fill="#6C5CE7"/>
  <circle cx="212" cy="178" r="8" fill="#6C5CE7"/>
  <circle cx="292" cy="178" r="8" fill="#6C5CE7"/>
  <circle cx="332" cy="178" r="8" fill="#6C5CE7"/>
  <path d="M256 240c-60 0-108 40-108 88 0 36 24 68 56 80v20h104v-20c32-12 56-44 56-80 0-48-48-88-108-88z" fill="#fff"/>
  <path d="M236 280c4 8 36 8 40 0" stroke="#6C5CE7" stroke-width="5" stroke-linecap="round" fill="none"/>
  <rect x="244" y="292" width="24" height="8" rx="4" fill="#6C5CE7"/>
</svg>
