<svg xmlns="http://www.w3.org/2000/svg" viewBox="0 0 64 64">
  <title>Replicate</title>
  <!-- R letter stylized -->
  <path d="M14 10H34C42 10 46 16 46 24C46 30 42 34 36 35V36C42 37 46 42 46 48C46 54 40 58 32 58H14V10Z" fill="#ffffff"/>
  <!-- R leg -->
  <path d="M32 36L46 58H36L24 36H32Z" fill="#ffffff"/>
  <!-- Inner R -->
  <path d="M18 14H32C38 14 40 18 40 24C40 28 38 32 34 33V34C38 35 40 38 40 42C40 48 36 52 30 52H18V14Z" fill="#1e1e1e"/>
  <path d="M28 34L38 52H30L22 34H28Z" fill="#1e1e1e"/>
  <!-- Top bar -->
  <rect x="14" y="10" width="10" height="48" rx="2" fill="#e5e5e5"/>
  <!-- Accent -->
  <circle cx="52" cy="12" r="4" fill="#ffffff" opacity="0.3"/>
</svg>