<svg xmlns="http://www.w3.org/2000/svg" viewBox="0 0 64 64">
  <title>Stable Diffusion</title>
  <!-- Diffusion circles -->
  <circle cx="32" cy="32" r="24" fill="none" stroke="#a855f7" stroke-width="2" opacity="0.3"/>
  <circle cx="32" cy="32" r="20" fill="none" stroke="#a855f7" stroke-width="2" opacity="0.4"/>
  <circle cx="32" cy="32" r="16" fill="none" stroke="#a855f7" stroke-width="2" opacity="0.5"/>
  <circle cx="32" cy="32" r="12" fill="none" stroke="#a855f7" stroke-width="2" opacity="0.6"/>
  <circle cx="32" cy="32" r="8" fill="#a855f7" opacity="0.8"/>
  <!-- Core -->
  <circle cx="32" cy="32" r="4" fill="#c084fc"/>
  <!-- Particles spreading out -->
  <circle cx="14" cy="20" r="3" fill="#a855f7"/>
  <circle cx="50" cy="18" r="2" fill="#a855f7" opacity="0.7"/>
  <circle cx="52" cy="44" r="2.5" fill="#a855f7"/>
  <circle cx="12" cy="46" r="2" fill="#a855f7" opacity="0.6"/>
  <circle cx="20" cy="52" r="1.5" fill="#a855f7" opacity="0.5"/>
  <circle cx="46" cy="12" r="1.5" fill="#a855f7" opacity="0.5"/>
  <!-- S letter -->
  <path d="M26 28C26 24 30 22 34 22C38 22 40 24 40 26C40 30 36 31 32 32C28 33 24 34 24 38C24 42 28 44 34 44C40 44 42 42 42 40" stroke="#7c3aed" stroke-width="3" fill="none" stroke-linecap="round"/>
</svg>